{"title":"El Barco 03x14","uid":8108314,"size":248590894,"categoryP":"video","categoryS":"tv_shows","magnet":"?xt=urn:btih:2904428d6d61307ea9421534c2295e0c0148519e&amp;dn=El+Barco+03x14&amp;tr=udp%3A%2F%2Ftracker.openbittorrent.com%3A80&amp;tr=udp%3A%2F%2Fopen.demonii.com%3A1337&amp;tr=udp%3A%2F%2Ftracker.coppersurfer.tk%3A6969&amp;tr=udp%3A%2F%2Fexodus.desync.com%3A6969","seeders":1,"leechers":0,"uploader":"MrFinch","files":1,"time":1360128200,"description":"\n   General\n      Format : MPEG-4\n      Format profile : Adobe Flash\n      Codec ID : f4v \n      File size : 237 MiB\n      Duration : 1h 11mn\n      Overall bit rate mode : Variable\n      Overall bit rate : 461 Kbps\n     \n   Video #1\n      ID : 1\n      Format : AVC\n      Format/Info : Advanced Video Codec\n      Format profile : &lt;a class=&quot;__cf_email__&quot; href=&quot;/cdn-cgi/l/email-protection&quot; data-cfemail=&quot;3a775b53547a76091408&quot;&gt;[email&amp;#160;protected]&lt;/a&gt;&lt;script cf-hash='f9e31' type=&quot;text/javascript&quot;&gt;\n/* &lt;![CDATA[ */!function(){try{var t=&quot;currentScript&quot;in document?document.currentScript:function(){for(var t=document.getElementsByTagName(&quot;script&quot;),e=t.length;e--;)if(t[e].getAttribute(&quot;cf-hash&quot;))return t[e]}();if(t&amp;&amp;t.previousSibling){var e,r,n,i,c=t.previousSibling,a=c.getAttribute(&quot;data-cfemail&quot;);if(a){for(e=&quot;&quot;,r=parseInt(a.substr(0,2),16),n=2;a.length-n;n+=2)i=parseInt(a.substr(n,2),16)^r,e+=String.fromCharCode(i);e=document.createTextNode(e),c.parentNode.replaceChild(e,c)}}}catch(u){}}();/* ]]&gt; */&lt;/script&gt;\n      Format settings, CABAC : Yes\n      Format settings, ReFrames : 1 frame\n      Codec ID : avc1\n      Codec ID/Info : Advanced Video Coding\n      Duration : 1h 11mn\n      Bit rate mode : Variable\n      Bit rate : 328 Kbps\n      Width : 512 pixels\n      Height : 288 pixels\n      Display aspect ratio : 16:9\n      Frame rate mode : Variable\n      Frame rate : 30.000 fps\n      Minimum frame rate : 29.412 fps\n      Maximum frame rate : 30.303 fps\n      Color space : YUV\n      Chroma subsampling : 4:2:0\n      Bit depth : 8 bits\n      Scan type : Progressive\n      Bits/(Pixel*Frame) : 0.074\n      Stream size : 169 MiB (71%)\n      Title : WowzaMediaServerPro\n      \n   Audio #2\n      ID : 2\n      Format : AAC\n      Format/Info : Advanced Audio Codec\n      Format profile : LC\n      Codec ID : 40\n      Duration : 1h 11mn\n      Bit rate mode : Variable\n      Bit rate : 128 Kbps\n      Channel(s) : 2 channels\n      Channel positions : Front: L R\n      Sampling rate : 44.1 KHz\n      Compression mode : Lossy\n      Stream size : 65.8 MiB (28%)\n      Title : WowzaMediaServerPro\n     ","torrent":{"xt":"urn:btih:2904428d6d61307ea9421534c2295e0c0148519e","amp;dn":"El+Barco+03x14","amp;tr":["udp%3A%2F%2Ftracker.openbittorrent.com%3A80","udp%3A%2F%2Fopen.demonii.com%3A1337","udp%3A%2F%2Ftracker.coppersurfer.tk%3A6969","udp%3A%2F%2Fexodus.desync.com%3A6969"],"infoHash":"2904428d6d61307ea9421534c2295e0c0148519e","infoHashBuffer":{"type":"Buffer","data":[41,4,66,141,109,97,48,126,169,66,21,52,194,41,94,12,1,72,81,158]},"announce":[],"urlList":[]}}